<svg width="67" height="135" viewBox="0 0 67 135" fill="none" xmlns="http://www.w3.org/2000/svg">
<g clip-path="url(#clip0_24_234)">
<path fill-rule="evenodd" clip-rule="evenodd" d="M42.5522 0L47.3918 9.19743V130.584L42.5522 134.246V0Z" fill="#F58634"/>
<path fill-rule="evenodd" clip-rule="evenodd" d="M4.54773 39.0825L23.0719 51.9419V134.246H4.54773V39.0825Z" fill="#CB3727"/>
<path fill-rule="evenodd" clip-rule="evenodd" d="M42.1485 0L23.6243 12.8594V134.246H42.1485V0Z" fill="#CB3727"/>
<path fill-rule="evenodd" clip-rule="evenodd" d="M61.5704 69.4822L43.0516 78.2391V134.246H61.5704V69.4822Z" fill="#CB3727"/>
<path fill-rule="evenodd" clip-rule="evenodd" d="M4.63273 39.0825L0.000366211 51.9419V134.246H4.63273V39.0825Z" fill="#F58634"/>
<path fill-rule="evenodd" clip-rule="evenodd" d="M62.1654 69.0576L66.9996 78.2604V130.584L62.1654 134.246V69.0576Z" fill="#F58634"/>
<path d="M51.3548 107.641C54.4094 107.641 56.8796 108.581 58.7602 110.459C60.6408 112.338 61.5757 114.822 61.5757 117.916V124.72C61.5757 127.819 60.6408 130.303 58.7602 132.177C56.8849 134.05 54.4147 134.995 51.3548 134.995H35.9596C32.8572 134.995 30.371 134.055 28.4905 132.177C26.6099 130.303 25.6749 127.814 25.6749 124.72V120.596H35.8321V124.2C35.8321 125.505 36.4855 126.164 37.7977 126.164H49.4583C50.7651 126.164 51.4185 125.511 51.4185 124.2V118.441C51.4185 117.131 50.7651 116.478 49.4583 116.478H35.8959C32.836 116.478 30.371 115.544 28.4905 113.665C26.6099 111.792 25.6749 109.302 25.6749 106.208V99.4682C25.6749 96.3687 26.6099 93.885 28.4905 92.0062C30.3657 90.1274 32.836 89.1934 35.8959 89.1934H51.2857C54.3881 89.1934 56.8743 90.1274 58.7549 92.0062C60.6355 93.885 61.5704 96.3687 61.5704 99.4682V103.592H51.4185V99.9883C51.4185 98.6827 50.7651 98.0246 49.4583 98.0246H37.7977C36.4855 98.0246 35.8321 98.6774 35.8321 99.9883V105.683C35.8321 106.994 36.4855 107.647 37.7977 107.647H51.3548V107.641Z" fill="#FFFAEA"/>
</g>
<defs>
<clipPath id="clip0_24_234">
<rect width="67" height="135" fill="white"/>
</clipPath>
</defs>
</svg>
